<svg xmlns="http://www.w3.org/2000/svg" xmlns:xlink="http://www.w3.org/1999/xlink" viewBox="0 0 830.35 611.76"><defs><style>.cls-1{fill:url(#linear-gradient);}.cls-2{fill:url(#linear-gradient-2);}.cls-3{fill:url(#linear-gradient-3);}.cls-4{fill:#fff;}</style><linearGradient id="linear-gradient" x1="1.38" y1="306" x2="831.73" y2="306" gradientUnits="userSpaceOnUse"><stop offset="0" stop-color="#5abb61"/><stop offset="0.18" stop-color="#51a462"/><stop offset="1" stop-color="#294269"/></linearGradient><linearGradient id="linear-gradient-2" x1="1.38" y1="117.04" x2="831.73" y2="117.04" xlink:href="#linear-gradient"/><linearGradient id="linear-gradient-3" x1="1.38" y1="64.88" x2="831.73" y2="64.88" xlink:href="#linear-gradient"/></defs><g id="Layer_2" data-name="Layer 2"><polygon class="cls-1" points="774.13 42.13 831.73 190.19 831.73 0.25 720.1 0.25 814.89 243.91 810.24 245.72 714.74 0.25 683.78 0.25 753.42 179.23 750.62 180.32 680.57 0.25 596.8 0.25 694.6 251.63 689.94 253.44 591.43 0.25 430.27 0.25 401.96 72.38 401.96 72.39 363.44 171.43 311.38 99.68 286.13 164.6 253.81 246.98 246.37 244.05 278.68 161.69 278.69 161.69 278.69 161.68 317.2 62.65 369.27 134.36 394.51 69.48 421.68 0.25 255.25 0.25 204.82 129.87 200.16 128.06 249.89 0.25 163.35 0.25 69.53 241.38 63.01 238.85 155.84 0.25 57.04 0.25 1.38 143.31 1.38 298.84 63.06 140.3 69.58 142.84 1.38 318.15 1.38 611.76 831.73 611.76 831.73 209.49 767.61 44.67 774.13 42.13"/><polygon class="cls-2" points="314.83 90.82 361.3 154.86 365.82 143.23 319.35 79.22 314.83 90.82"/><polygon class="cls-3" points="1.38 0.25 1.38 129.52 51.67 0.25 1.38 0.25"/><path class="cls-4" d="M369.28,134.36,317.21,62.65l-38.52,99h0l-32.32,82.36,7.46,2.93,32.3-82.38,25.26-64.92,52.06,71.75,38.53-99h0L430.27.25h-8.6L394.52,69.48Zm-8,20.5-46.46-64,4.5-11.6,46.48,64Z"/><polygon class="cls-4" points="694.6 251.63 596.8 0.25 591.43 0.25 689.94 253.44 694.6 251.63"/><polygon class="cls-4" points="69.53 241.38 163.35 0.25 155.84 0.25 63.01 238.85 69.53 241.38"/><polygon class="cls-4" points="204.82 129.87 255.25 0.25 249.89 0.25 200.16 128.06 204.82 129.87"/><polygon class="cls-4" points="63.06 140.3 1.38 298.84 1.38 318.15 69.58 142.84 63.06 140.3"/><polygon class="cls-4" points="814.89 243.91 720.1 0.25 714.74 0.25 810.24 245.72 814.89 243.91"/><polygon class="cls-4" points="774.13 42.13 767.61 44.67 831.73 209.49 831.73 190.19 774.13 42.13"/><polygon class="cls-4" points="753.42 179.23 683.78 0.25 680.57 0.25 750.62 180.32 753.42 179.23"/><polygon class="cls-4" points="51.67 0.25 1.38 129.52 1.38 143.31 57.04 0.25 51.67 0.25"/><path class="cls-4" d="M407.22,164.59l25.4-65.3L474,156.2l41.29-56.87,25.38,65.26L578,260.52l7.45-2.9L548.09,161.7h0l-30.65-79,0,0-7.82-20.1L473.67,111.9,438.3,62.6l-38.53,99.08h0l-32.83,83.69,7.44,2.92Zm66.73-22L436.07,90.42l4.35-11.16,33.19,46.3,33.8-46.36,4.38,11.27Z"/><rect class="cls-4" x="645.92" y="126.66" width="7" height="299.97" transform="translate(-56.12 254.28) rotate(-21.26)"/><rect class="cls-4" x="84.91" y="173.58" width="289.89" height="3" transform="translate(-16.68 325.77) rotate(-68.73)"/></g></svg>